<mxfile host="app.diagrams.net" modified="2023-05-05T09:09:47.809Z" agent="Mozilla/5.0 (Macintosh; Intel Mac OS X 10_15_7) AppleWebKit/537.36 (KHTML, like Gecko) Chrome/112.0.0.0 Safari/537.36" etag="Q-I_PuJlppndIktmaH9s" version="21.2.9" type="github" pages="2">
  <diagram id="7VpLgKUhUg1QOJvUB-86" name="第 1 页">
    <mxGraphModel dx="1434" dy="771" grid="1" gridSize="10" guides="1" tooltips="1" connect="1" arrows="1" fold="1" page="1" pageScale="1" pageWidth="827" pageHeight="1169" math="0" shadow="0">
      <root>
        <mxCell id="0" />
        <mxCell id="1" parent="0" />
        <mxCell id="woaN7mxJzFXpO-_uOvNb-15" value="" style="shape=curlyBracket;whiteSpace=wrap;html=1;rounded=1;labelPosition=left;verticalLabelPosition=middle;align=right;verticalAlign=middle;labelBackgroundColor=none;fillColor=#FFE45E;strokeColor=#21c442;fontColor=#5AA9E6;" vertex="1" parent="1">
          <mxGeometry x="130" y="250" width="20" height="320" as="geometry" />
        </mxCell>
        <mxCell id="woaN7mxJzFXpO-_uOvNb-18" value="" style="html=1;dashed=0;whiteSpace=wrap;shape=mxgraph.dfd.start;labelBackgroundColor=none;fillColor=#FFE45E;strokeColor=#21c442;fontColor=#5AA9E6;" vertex="1" parent="1">
          <mxGeometry x="50" y="395" width="80" height="30" as="geometry" />
        </mxCell>
      </root>
    </mxGraphModel>
  </diagram>
  <diagram id="zdjOievY-cPsa2ZSKp_x" name="Page-2">
    <mxGraphModel dx="1434" dy="771" grid="1" gridSize="10" guides="1" tooltips="1" connect="1" arrows="1" fold="1" page="1" pageScale="1" pageWidth="827" pageHeight="1169" math="0" shadow="0">
      <root>
        <mxCell id="0" />
        <mxCell id="1" parent="0" />
      </root>
    </mxGraphModel>
  </diagram>
</mxfile>
